<?xml version="1.0" encoding="UTF-8" standalone="no"?><svg xmlns="http://www.w3.org/2000/svg" xmlns:xlink="http://www.w3.org/1999/xlink" contentScriptType="application/ecmascript" contentStyleType="text/css" height="482px" preserveAspectRatio="none" style="width:2055px;height:482px;background:#FFFFFF;" version="1.1" viewBox="0 0 2055 482" width="2055px" zoomAndPan="magnify"><defs><filter height="300%" id="f1tkx1ty473p30" width="300%" x="-1" y="-1"><feGaussianBlur result="blurOut" stdDeviation="2.0"/><feColorMatrix in="blurOut" result="blurOut2" type="matrix" values="0 0 0 0 0 0 0 0 0 0 0 0 0 0 0 0 0 0 .4 0"/><feOffset dx="4.0" dy="4.0" in="blurOut2" result="blurOut3"/><feBlend in="SourceGraphic" in2="blurOut3" mode="normal"/></filter></defs><g><!--MD5=[b6bbb6b23b6b1c4c2a5fbc178f8d657a]
cluster Random User--><polygon fill="#FFFFFF" filter="url(#f1tkx1ty473p30)" points="16,6,127,6,134,28.2969,2038,28.2969,2038,475,16,475,16,6" style="stroke:#000000;stroke-width:1.5;"/><line style="stroke:#000000;stroke-width:1.5;" x1="16" x2="134" y1="28.2969" y2="28.2969"/><text fill="#000000" font-family="sans-serif" font-size="14" font-weight="bold" lengthAdjust="spacing" textLength="105" x="20" y="20.9951">Random User</text><!--MD5=[e5808a5babf7c44d068ae1277014600e]
cluster Module app--><polygon fill="#FFFFFF" filter="url(#f1tkx1ty473p30)" points="1819,168,1916,168,1923,190.2969,2030,190.2969,2030,467,1819,467,1819,168" style="stroke:#000000;stroke-width:1.5;"/><line style="stroke:#000000;stroke-width:1.5;" x1="1819" x2="1923" y1="190.2969" y2="190.2969"/><text fill="#000000" font-family="sans-serif" font-size="14" font-weight="bold" lengthAdjust="spacing" textLength="91" x="1823" y="182.9951">Module app</text><!--MD5=[43e4992f830be0012184d47d3bc08dac]
cluster Module domain--><polygon fill="#FFFFFF" filter="url(#f1tkx1ty473p30)" points="980,60,1105,60,1112,82.2969,1811,82.2969,1811,251,980,251,980,60" style="stroke:#000000;stroke-width:1.5;"/><line style="stroke:#000000;stroke-width:1.5;" x1="980" x2="1112" y1="82.2969" y2="82.2969"/><text fill="#000000" font-family="sans-serif" font-size="14" font-weight="bold" lengthAdjust="spacing" textLength="119" x="984" y="74.9951">Module domain</text><!--MD5=[b4800a31584ab15712c17780e9dce337]
cluster Module data--><polygon fill="#FFFFFF" filter="url(#f1tkx1ty473p30)" points="24,33,126,33,133,55.2969,972,55.2969,972,259,24,259,24,33" style="stroke:#000000;stroke-width:1.5;"/><line style="stroke:#000000;stroke-width:1.5;" x1="24" x2="133" y1="55.2969" y2="55.2969"/><text fill="#000000" font-family="sans-serif" font-size="14" font-weight="bold" lengthAdjust="spacing" textLength="96" x="28" y="47.9951">Module data</text><!--MD5=[71971f99a41bb66cf321ce46bb59f738]
cluster Repository--><polygon fill="#FFFFFF" filter="url(#f1tkx1ty473p30)" points="583,168,674,168,681,190.2969,964,190.2969,964,251,583,251,583,168" style="stroke:#000000;stroke-width:1.5;"/><line style="stroke:#000000;stroke-width:1.5;" x1="583" x2="681" y1="190.2969" y2="190.2969"/><text fill="#000000" font-family="sans-serif" font-size="14" font-weight="bold" lengthAdjust="spacing" textLength="85" x="587" y="182.9951">Repository</text><!--MD5=[498a707edf4a51645a1a637c5052cf0d]
cluster Source--><polygon fill="#FFFFFF" filter="url(#f1tkx1ty473p30)" points="32,60,94,60,101,82.2969,575,82.2969,575,251,32,251,32,60" style="stroke:#000000;stroke-width:1.5;"/><line style="stroke:#000000;stroke-width:1.5;" x1="32" x2="101" y1="82.2969" y2="82.2969"/><text fill="#000000" font-family="sans-serif" font-size="14" font-weight="bold" lengthAdjust="spacing" textLength="56" x="36" y="74.9951">Source</text><!--MD5=[08f08c126934c879dd3dff97ffc48ceb]
class UserDetailFragment--><rect codeLine="3" fill="#FEFECE" filter="url(#f1tkx1ty473p30)" height="48" id="UserDetailFragment" style="stroke:#A80036;stroke-width:1.5;" width="157" x="1827.5" y="303"/><ellipse cx="1842.5" cy="319" fill="#ADD1B2" rx="11" ry="11" style="stroke:#A80036;stroke-width:1.0;"/><path d="M1845.4688,324.6406 Q1844.8906,324.9375 1844.25,325.0781 Q1843.6094,325.2344 1842.9063,325.2344 Q1840.4063,325.2344 1839.0781,323.5938 Q1837.7656,321.9375 1837.7656,318.8125 Q1837.7656,315.6875 1839.0781,314.0313 Q1840.4063,312.375 1842.9063,312.375 Q1843.6094,312.375 1844.25,312.5313 Q1844.9063,312.6875 1845.4688,312.9844 L1845.4688,315.7031 Q1844.8438,315.125 1844.25,314.8594 Q1843.6563,314.5781 1843.0313,314.5781 Q1841.6875,314.5781 1841,315.6563 Q1840.3125,316.7188 1840.3125,318.8125 Q1840.3125,320.9063 1841,321.9844 Q1841.6875,323.0469 1843.0313,323.0469 Q1843.6563,323.0469 1844.25,322.7813 Q1844.8438,322.5 1845.4688,321.9219 L1845.4688,324.6406 Z " fill="#000000"/><text fill="#000000" font-family="sans-serif" font-size="12" lengthAdjust="spacing" textLength="125" x="1856.5" y="323.1543">UserDetailFragment</text><line style="stroke:#A80036;stroke-width:1.5;" x1="1828.5" x2="1983.5" y1="335" y2="335"/><line style="stroke:#A80036;stroke-width:1.5;" x1="1828.5" x2="1983.5" y1="343" y2="343"/><!--MD5=[7703a6ded4e8eb17f28258c6bae2973a]
class UserFragment--><rect codeLine="4" fill="#FEFECE" filter="url(#f1tkx1ty473p30)" height="48" id="UserFragment" style="stroke:#A80036;stroke-width:1.5;" width="121" x="1872.5" y="411"/><ellipse cx="1887.5" cy="427" fill="#ADD1B2" rx="11" ry="11" style="stroke:#A80036;stroke-width:1.0;"/><path d="M1890.4688,432.6406 Q1889.8906,432.9375 1889.25,433.0781 Q1888.6094,433.2344 1887.9063,433.2344 Q1885.4063,433.2344 1884.0781,431.5938 Q1882.7656,429.9375 1882.7656,426.8125 Q1882.7656,423.6875 1884.0781,422.0313 Q1885.4063,420.375 1887.9063,420.375 Q1888.6094,420.375 1889.25,420.5313 Q1889.9063,420.6875 1890.4688,420.9844 L1890.4688,423.7031 Q1889.8438,423.125 1889.25,422.8594 Q1888.6563,422.5781 1888.0313,422.5781 Q1886.6875,422.5781 1886,423.6563 Q1885.3125,424.7188 1885.3125,426.8125 Q1885.3125,428.9063 1886,429.9844 Q1886.6875,431.0469 1888.0313,431.0469 Q1888.6563,431.0469 1889.25,430.7813 Q1889.8438,430.5 1890.4688,429.9219 L1890.4688,432.6406 Z " fill="#000000"/><text fill="#000000" font-family="sans-serif" font-size="12" lengthAdjust="spacing" textLength="89" x="1901.5" y="431.1543">UserFragment</text><line style="stroke:#A80036;stroke-width:1.5;" x1="1873.5" x2="1992.5" y1="443" y2="443"/><line style="stroke:#A80036;stroke-width:1.5;" x1="1873.5" x2="1992.5" y1="451" y2="451"/><!--MD5=[b0ef105f0e650f973effd5f073e8e7ef]
class UserViewModel--><rect codeLine="5" fill="#FEFECE" filter="url(#f1tkx1ty473p30)" height="48" id="UserViewModel" style="stroke:#A80036;stroke-width:1.5;" width="126" x="1843" y="195"/><ellipse cx="1858" cy="211" fill="#ADD1B2" rx="11" ry="11" style="stroke:#A80036;stroke-width:1.0;"/><path d="M1860.9688,216.6406 Q1860.3906,216.9375 1859.75,217.0781 Q1859.1094,217.2344 1858.4063,217.2344 Q1855.9063,217.2344 1854.5781,215.5938 Q1853.2656,213.9375 1853.2656,210.8125 Q1853.2656,207.6875 1854.5781,206.0313 Q1855.9063,204.375 1858.4063,204.375 Q1859.1094,204.375 1859.75,204.5313 Q1860.4063,204.6875 1860.9688,204.9844 L1860.9688,207.7031 Q1860.3438,207.125 1859.75,206.8594 Q1859.1563,206.5781 1858.5313,206.5781 Q1857.1875,206.5781 1856.5,207.6563 Q1855.8125,208.7188 1855.8125,210.8125 Q1855.8125,212.9063 1856.5,213.9844 Q1857.1875,215.0469 1858.5313,215.0469 Q1859.1563,215.0469 1859.75,214.7813 Q1860.3438,214.5 1860.9688,213.9219 L1860.9688,216.6406 Z " fill="#000000"/><text fill="#000000" font-family="sans-serif" font-size="12" lengthAdjust="spacing" textLength="94" x="1872" y="215.1543">UserViewModel</text><line style="stroke:#A80036;stroke-width:1.5;" x1="1844" x2="1968" y1="227" y2="227"/><line style="stroke:#A80036;stroke-width:1.5;" x1="1844" x2="1968" y1="235" y2="235"/><!--MD5=[54bd59c2dca9a27d722a3bf264a1b64e]
class NetworkInteractor--><rect codeLine="9" fill="#FEFECE" filter="url(#f1tkx1ty473p30)" height="48" id="NetworkInteractor" style="stroke:#A80036;stroke-width:1.5;" width="145" x="1499.5" y="87"/><ellipse cx="1514.5" cy="103" fill="#B4A7E5" rx="11" ry="11" style="stroke:#A80036;stroke-width:1.0;"/><path d="M1510.4219,98.7656 L1510.4219,96.6094 L1517.8125,96.6094 L1517.8125,98.7656 L1515.3438,98.7656 L1515.3438,106.8438 L1517.8125,106.8438 L1517.8125,109 L1510.4219,109 L1510.4219,106.8438 L1512.8906,106.8438 L1512.8906,98.7656 L1510.4219,98.7656 Z " fill="#000000"/><text fill="#000000" font-family="sans-serif" font-size="12" font-style="italic" lengthAdjust="spacing" textLength="113" x="1528.5" y="107.1543">NetworkInteractor</text><line style="stroke:#A80036;stroke-width:1.5;" x1="1500.5" x2="1643.5" y1="119" y2="119"/><line style="stroke:#A80036;stroke-width:1.5;" x1="1500.5" x2="1643.5" y1="127" y2="127"/><!--MD5=[42839d8c65196a46f8ed9d9022038f51]
class NetworkInteractorImpl--><rect codeLine="10" fill="#FEFECE" filter="url(#f1tkx1ty473p30)" height="48" id="NetworkInteractorImpl" style="stroke:#A80036;stroke-width:1.5;" width="170" x="1264" y="195"/><ellipse cx="1279" cy="211" fill="#ADD1B2" rx="11" ry="11" style="stroke:#A80036;stroke-width:1.0;"/><path d="M1281.9688,216.6406 Q1281.3906,216.9375 1280.75,217.0781 Q1280.1094,217.2344 1279.4063,217.2344 Q1276.9063,217.2344 1275.5781,215.5938 Q1274.2656,213.9375 1274.2656,210.8125 Q1274.2656,207.6875 1275.5781,206.0313 Q1276.9063,204.375 1279.4063,204.375 Q1280.1094,204.375 1280.75,204.5313 Q1281.4063,204.6875 1281.9688,204.9844 L1281.9688,207.7031 Q1281.3438,207.125 1280.75,206.8594 Q1280.1563,206.5781 1279.5313,206.5781 Q1278.1875,206.5781 1277.5,207.6563 Q1276.8125,208.7188 1276.8125,210.8125 Q1276.8125,212.9063 1277.5,213.9844 Q1278.1875,215.0469 1279.5313,215.0469 Q1280.1563,215.0469 1280.75,214.7813 Q1281.3438,214.5 1281.9688,213.9219 L1281.9688,216.6406 Z " fill="#000000"/><text fill="#000000" font-family="sans-serif" font-size="12" lengthAdjust="spacing" textLength="138" x="1293" y="215.1543">NetworkInteractorImpl</text><line style="stroke:#A80036;stroke-width:1.5;" x1="1265" x2="1433" y1="227" y2="227"/><line style="stroke:#A80036;stroke-width:1.5;" x1="1265" x2="1433" y1="235" y2="235"/><!--MD5=[6c97caeb58444014bf75c81239fc6b4d]
class LocalInteractor--><rect codeLine="11" fill="#FEFECE" filter="url(#f1tkx1ty473p30)" height="48" id="LocalInteractor" style="stroke:#A80036;stroke-width:1.5;" width="126" x="1338" y="87"/><ellipse cx="1353" cy="103" fill="#B4A7E5" rx="11" ry="11" style="stroke:#A80036;stroke-width:1.0;"/><path d="M1348.9219,98.7656 L1348.9219,96.6094 L1356.3125,96.6094 L1356.3125,98.7656 L1353.8438,98.7656 L1353.8438,106.8438 L1356.3125,106.8438 L1356.3125,109 L1348.9219,109 L1348.9219,106.8438 L1351.3906,106.8438 L1351.3906,98.7656 L1348.9219,98.7656 Z " fill="#000000"/><text fill="#000000" font-family="sans-serif" font-size="12" font-style="italic" lengthAdjust="spacing" textLength="94" x="1367" y="107.1543">LocalInteractor</text><line style="stroke:#A80036;stroke-width:1.5;" x1="1339" x2="1463" y1="119" y2="119"/><line style="stroke:#A80036;stroke-width:1.5;" x1="1339" x2="1463" y1="127" y2="127"/><!--MD5=[d2b0b32d88fac7d090b70f35b9872850]
class LocalInteractorImpl--><rect codeLine="12" fill="#FEFECE" filter="url(#f1tkx1ty473p30)" height="48" id="LocalInteractorImpl" style="stroke:#A80036;stroke-width:1.5;" width="151" x="1020.5" y="195"/><ellipse cx="1035.5" cy="211" fill="#ADD1B2" rx="11" ry="11" style="stroke:#A80036;stroke-width:1.0;"/><path d="M1038.4688,216.6406 Q1037.8906,216.9375 1037.25,217.0781 Q1036.6094,217.2344 1035.9063,217.2344 Q1033.4063,217.2344 1032.0781,215.5938 Q1030.7656,213.9375 1030.7656,210.8125 Q1030.7656,207.6875 1032.0781,206.0313 Q1033.4063,204.375 1035.9063,204.375 Q1036.6094,204.375 1037.25,204.5313 Q1037.9063,204.6875 1038.4688,204.9844 L1038.4688,207.7031 Q1037.8438,207.125 1037.25,206.8594 Q1036.6563,206.5781 1036.0313,206.5781 Q1034.6875,206.5781 1034,207.6563 Q1033.3125,208.7188 1033.3125,210.8125 Q1033.3125,212.9063 1034,213.9844 Q1034.6875,215.0469 1036.0313,215.0469 Q1036.6563,215.0469 1037.25,214.7813 Q1037.8438,214.5 1038.4688,213.9219 L1038.4688,216.6406 Z " fill="#000000"/><text fill="#000000" font-family="sans-serif" font-size="12" lengthAdjust="spacing" textLength="119" x="1049.5" y="215.1543">LocalInteractorImpl</text><line style="stroke:#A80036;stroke-width:1.5;" x1="1021.5" x2="1170.5" y1="227" y2="227"/><line style="stroke:#A80036;stroke-width:1.5;" x1="1021.5" x2="1170.5" y1="235" y2="235"/><!--MD5=[4abbea6bc7176db9e8d87ad46f398994]
class UserInteractor--><rect codeLine="13" fill="#FEFECE" filter="url(#f1tkx1ty473p30)" height="48" id="UserInteractor" style="stroke:#A80036;stroke-width:1.5;" width="123" x="1679.5" y="87"/><ellipse cx="1694.5" cy="103" fill="#B4A7E5" rx="11" ry="11" style="stroke:#A80036;stroke-width:1.0;"/><path d="M1690.4219,98.7656 L1690.4219,96.6094 L1697.8125,96.6094 L1697.8125,98.7656 L1695.3438,98.7656 L1695.3438,106.8438 L1697.8125,106.8438 L1697.8125,109 L1690.4219,109 L1690.4219,106.8438 L1692.8906,106.8438 L1692.8906,98.7656 L1690.4219,98.7656 Z " fill="#000000"/><text fill="#000000" font-family="sans-serif" font-size="12" font-style="italic" lengthAdjust="spacing" textLength="91" x="1708.5" y="107.1543">UserInteractor</text><line style="stroke:#A80036;stroke-width:1.5;" x1="1680.5" x2="1801.5" y1="119" y2="119"/><line style="stroke:#A80036;stroke-width:1.5;" x1="1680.5" x2="1801.5" y1="127" y2="127"/><!--MD5=[fd44191e6793b74ff47ba55ec41ad6a3]
class UserInteractorImpl--><rect codeLine="14" fill="#FEFECE" filter="url(#f1tkx1ty473p30)" height="48" id="UserInteractorImpl" style="stroke:#A80036;stroke-width:1.5;" width="148" x="1498" y="195"/><ellipse cx="1513" cy="211" fill="#ADD1B2" rx="11" ry="11" style="stroke:#A80036;stroke-width:1.0;"/><path d="M1515.9688,216.6406 Q1515.3906,216.9375 1514.75,217.0781 Q1514.1094,217.2344 1513.4063,217.2344 Q1510.9063,217.2344 1509.5781,215.5938 Q1508.2656,213.9375 1508.2656,210.8125 Q1508.2656,207.6875 1509.5781,206.0313 Q1510.9063,204.375 1513.4063,204.375 Q1514.1094,204.375 1514.75,204.5313 Q1515.4063,204.6875 1515.9688,204.9844 L1515.9688,207.7031 Q1515.3438,207.125 1514.75,206.8594 Q1514.1563,206.5781 1513.5313,206.5781 Q1512.1875,206.5781 1511.5,207.6563 Q1510.8125,208.7188 1510.8125,210.8125 Q1510.8125,212.9063 1511.5,213.9844 Q1512.1875,215.0469 1513.5313,215.0469 Q1514.1563,215.0469 1514.75,214.7813 Q1515.3438,214.5 1515.9688,213.9219 L1515.9688,216.6406 Z " fill="#000000"/><text fill="#000000" font-family="sans-serif" font-size="12" lengthAdjust="spacing" textLength="116" x="1527" y="215.1543">UserInteractorImpl</text><line style="stroke:#A80036;stroke-width:1.5;" x1="1499" x2="1645" y1="227" y2="227"/><line style="stroke:#A80036;stroke-width:1.5;" x1="1499" x2="1645" y1="235" y2="235"/><!--MD5=[18457dad59857f33baf9d106598673e1]
class NetworkRepository--><rect codeLine="15" fill="#FEFECE" filter="url(#f1tkx1ty473p30)" height="48" id="NetworkRepository" style="stroke:#A80036;stroke-width:1.5;" width="149" x="1153.5" y="87"/><ellipse cx="1168.5" cy="103" fill="#B4A7E5" rx="11" ry="11" style="stroke:#A80036;stroke-width:1.0;"/><path d="M1164.4219,98.7656 L1164.4219,96.6094 L1171.8125,96.6094 L1171.8125,98.7656 L1169.3438,98.7656 L1169.3438,106.8438 L1171.8125,106.8438 L1171.8125,109 L1164.4219,109 L1164.4219,106.8438 L1166.8906,106.8438 L1166.8906,98.7656 L1164.4219,98.7656 Z " fill="#000000"/><text fill="#000000" font-family="sans-serif" font-size="12" font-style="italic" lengthAdjust="spacing" textLength="117" x="1182.5" y="107.1543">NetworkRepository</text><line style="stroke:#A80036;stroke-width:1.5;" x1="1154.5" x2="1301.5" y1="119" y2="119"/><line style="stroke:#A80036;stroke-width:1.5;" x1="1154.5" x2="1301.5" y1="127" y2="127"/><!--MD5=[01c1599951cbe3ccb86a1f514a13d056]
class LocalRepository--><rect codeLine="16" fill="#FEFECE" filter="url(#f1tkx1ty473p30)" height="48" id="LocalRepository" style="stroke:#A80036;stroke-width:1.5;" width="130" x="988" y="87"/><ellipse cx="1003" cy="103" fill="#B4A7E5" rx="11" ry="11" style="stroke:#A80036;stroke-width:1.0;"/><path d="M998.9219,98.7656 L998.9219,96.6094 L1006.3125,96.6094 L1006.3125,98.7656 L1003.8438,98.7656 L1003.8438,106.8438 L1006.3125,106.8438 L1006.3125,109 L998.9219,109 L998.9219,106.8438 L1001.3906,106.8438 L1001.3906,98.7656 L998.9219,98.7656 Z " fill="#000000"/><text fill="#000000" font-family="sans-serif" font-size="12" font-style="italic" lengthAdjust="spacing" textLength="98" x="1017" y="107.1543">LocalRepository</text><line style="stroke:#A80036;stroke-width:1.5;" x1="989" x2="1117" y1="119" y2="119"/><line style="stroke:#A80036;stroke-width:1.5;" x1="989" x2="1117" y1="127" y2="127"/><!--MD5=[74af1f4d4dc641d9854b6118caef549c]
class NetworkRepositoryImpl--><rect codeLine="21" fill="#FEFECE" filter="url(#f1tkx1ty473p30)" height="48" id="NetworkRepositoryImpl" style="stroke:#A80036;stroke-width:1.5;" width="174" x="782" y="195"/><ellipse cx="797" cy="211" fill="#ADD1B2" rx="11" ry="11" style="stroke:#A80036;stroke-width:1.0;"/><path d="M799.9688,216.6406 Q799.3906,216.9375 798.75,217.0781 Q798.1094,217.2344 797.4063,217.2344 Q794.9063,217.2344 793.5781,215.5938 Q792.2656,213.9375 792.2656,210.8125 Q792.2656,207.6875 793.5781,206.0313 Q794.9063,204.375 797.4063,204.375 Q798.1094,204.375 798.75,204.5313 Q799.4063,204.6875 799.9688,204.9844 L799.9688,207.7031 Q799.3438,207.125 798.75,206.8594 Q798.1563,206.5781 797.5313,206.5781 Q796.1875,206.5781 795.5,207.6563 Q794.8125,208.7188 794.8125,210.8125 Q794.8125,212.9063 795.5,213.9844 Q796.1875,215.0469 797.5313,215.0469 Q798.1563,215.0469 798.75,214.7813 Q799.3438,214.5 799.9688,213.9219 L799.9688,216.6406 Z " fill="#000000"/><text fill="#000000" font-family="sans-serif" font-size="12" lengthAdjust="spacing" textLength="142" x="811" y="215.1543">NetworkRepositoryImpl</text><line style="stroke:#A80036;stroke-width:1.5;" x1="783" x2="955" y1="227" y2="227"/><line style="stroke:#A80036;stroke-width:1.5;" x1="783" x2="955" y1="235" y2="235"/><!--MD5=[8dac4452cfe65b4abd65898130315881]
class LocalRepositoryImpl--><rect codeLine="22" fill="#FEFECE" filter="url(#f1tkx1ty473p30)" height="48" id="LocalRepositoryImpl" style="stroke:#A80036;stroke-width:1.5;" width="155" x="591.5" y="195"/><ellipse cx="606.5" cy="211" fill="#ADD1B2" rx="11" ry="11" style="stroke:#A80036;stroke-width:1.0;"/><path d="M609.4688,216.6406 Q608.8906,216.9375 608.25,217.0781 Q607.6094,217.2344 606.9063,217.2344 Q604.4063,217.2344 603.0781,215.5938 Q601.7656,213.9375 601.7656,210.8125 Q601.7656,207.6875 603.0781,206.0313 Q604.4063,204.375 606.9063,204.375 Q607.6094,204.375 608.25,204.5313 Q608.9063,204.6875 609.4688,204.9844 L609.4688,207.7031 Q608.8438,207.125 608.25,206.8594 Q607.6563,206.5781 607.0313,206.5781 Q605.6875,206.5781 605,207.6563 Q604.3125,208.7188 604.3125,210.8125 Q604.3125,212.9063 605,213.9844 Q605.6875,215.0469 607.0313,215.0469 Q607.6563,215.0469 608.25,214.7813 Q608.8438,214.5 609.4688,213.9219 L609.4688,216.6406 Z " fill="#000000"/><text fill="#000000" font-family="sans-serif" font-size="12" lengthAdjust="spacing" textLength="123" x="620.5" y="215.1543">LocalRepositoryImpl</text><line style="stroke:#A80036;stroke-width:1.5;" x1="592.5" x2="745.5" y1="227" y2="227"/><line style="stroke:#A80036;stroke-width:1.5;" x1="592.5" x2="745.5" y1="235" y2="235"/><!--MD5=[b00372ad494c7bd768dc88413c02e92a]
class NetworkSource--><rect codeLine="26" fill="#FEFECE" filter="url(#f1tkx1ty473p30)" height="48" id="NetworkSource" style="stroke:#A80036;stroke-width:1.5;" width="127" x="439.5" y="87"/><ellipse cx="454.5" cy="103" fill="#B4A7E5" rx="11" ry="11" style="stroke:#A80036;stroke-width:1.0;"/><path d="M450.4219,98.7656 L450.4219,96.6094 L457.8125,96.6094 L457.8125,98.7656 L455.3438,98.7656 L455.3438,106.8438 L457.8125,106.8438 L457.8125,109 L450.4219,109 L450.4219,106.8438 L452.8906,106.8438 L452.8906,98.7656 L450.4219,98.7656 Z " fill="#000000"/><text fill="#000000" font-family="sans-serif" font-size="12" font-style="italic" lengthAdjust="spacing" textLength="95" x="468.5" y="107.1543">NetworkSource</text><line style="stroke:#A80036;stroke-width:1.5;" x1="440.5" x2="565.5" y1="119" y2="119"/><line style="stroke:#A80036;stroke-width:1.5;" x1="440.5" x2="565.5" y1="127" y2="127"/><!--MD5=[32b1c0dbf928db0d766a0dbae5050db6]
class NetworkSourceImpl--><rect codeLine="27" fill="#FEFECE" filter="url(#f1tkx1ty473p30)" height="48" id="NetworkSourceImpl" style="stroke:#A80036;stroke-width:1.5;" width="152" x="355" y="195"/><ellipse cx="370" cy="211" fill="#ADD1B2" rx="11" ry="11" style="stroke:#A80036;stroke-width:1.0;"/><path d="M372.9688,216.6406 Q372.3906,216.9375 371.75,217.0781 Q371.1094,217.2344 370.4063,217.2344 Q367.9063,217.2344 366.5781,215.5938 Q365.2656,213.9375 365.2656,210.8125 Q365.2656,207.6875 366.5781,206.0313 Q367.9063,204.375 370.4063,204.375 Q371.1094,204.375 371.75,204.5313 Q372.4063,204.6875 372.9688,204.9844 L372.9688,207.7031 Q372.3438,207.125 371.75,206.8594 Q371.1563,206.5781 370.5313,206.5781 Q369.1875,206.5781 368.5,207.6563 Q367.8125,208.7188 367.8125,210.8125 Q367.8125,212.9063 368.5,213.9844 Q369.1875,215.0469 370.5313,215.0469 Q371.1563,215.0469 371.75,214.7813 Q372.3438,214.5 372.9688,213.9219 L372.9688,216.6406 Z " fill="#000000"/><text fill="#000000" font-family="sans-serif" font-size="12" lengthAdjust="spacing" textLength="120" x="384" y="215.1543">NetworkSourceImpl</text><line style="stroke:#A80036;stroke-width:1.5;" x1="356" x2="506" y1="227" y2="227"/><line style="stroke:#A80036;stroke-width:1.5;" x1="356" x2="506" y1="235" y2="235"/><!--MD5=[a0f9c99b8882f29d9f2f66da05d055b3]
class LocalSource--><rect codeLine="28" fill="#FEFECE" filter="url(#f1tkx1ty473p30)" height="48" id="LocalSource" style="stroke:#A80036;stroke-width:1.5;" width="108" x="296" y="87"/><ellipse cx="311" cy="103" fill="#B4A7E5" rx="11" ry="11" style="stroke:#A80036;stroke-width:1.0;"/><path d="M306.9219,98.7656 L306.9219,96.6094 L314.3125,96.6094 L314.3125,98.7656 L311.8438,98.7656 L311.8438,106.8438 L314.3125,106.8438 L314.3125,109 L306.9219,109 L306.9219,106.8438 L309.3906,106.8438 L309.3906,98.7656 L306.9219,98.7656 Z " fill="#000000"/><text fill="#000000" font-family="sans-serif" font-size="12" font-style="italic" lengthAdjust="spacing" textLength="76" x="325" y="107.1543">LocalSource</text><line style="stroke:#A80036;stroke-width:1.5;" x1="297" x2="403" y1="119" y2="119"/><line style="stroke:#A80036;stroke-width:1.5;" x1="297" x2="403" y1="127" y2="127"/><!--MD5=[e8da8711facdcb3edcd1f457fa772a16]
class LocalSourceImpl--><rect codeLine="29" fill="#FEFECE" filter="url(#f1tkx1ty473p30)" height="48" id="LocalSourceImpl" style="stroke:#A80036;stroke-width:1.5;" width="133" x="137.5" y="195"/><ellipse cx="152.5" cy="211" fill="#ADD1B2" rx="11" ry="11" style="stroke:#A80036;stroke-width:1.0;"/><path d="M155.4688,216.6406 Q154.8906,216.9375 154.25,217.0781 Q153.6094,217.2344 152.9063,217.2344 Q150.4063,217.2344 149.0781,215.5938 Q147.7656,213.9375 147.7656,210.8125 Q147.7656,207.6875 149.0781,206.0313 Q150.4063,204.375 152.9063,204.375 Q153.6094,204.375 154.25,204.5313 Q154.9063,204.6875 155.4688,204.9844 L155.4688,207.7031 Q154.8438,207.125 154.25,206.8594 Q153.6563,206.5781 153.0313,206.5781 Q151.6875,206.5781 151,207.6563 Q150.3125,208.7188 150.3125,210.8125 Q150.3125,212.9063 151,213.9844 Q151.6875,215.0469 153.0313,215.0469 Q153.6563,215.0469 154.25,214.7813 Q154.8438,214.5 155.4688,213.9219 L155.4688,216.6406 Z " fill="#000000"/><text fill="#000000" font-family="sans-serif" font-size="12" lengthAdjust="spacing" textLength="101" x="166.5" y="215.1543">LocalSourceImpl</text><line style="stroke:#A80036;stroke-width:1.5;" x1="138.5" x2="269.5" y1="227" y2="227"/><line style="stroke:#A80036;stroke-width:1.5;" x1="138.5" x2="269.5" y1="235" y2="235"/><!--MD5=[cdf9ca5fd454307e987e44356826f908]
class NetworkApi--><rect codeLine="31" fill="#FEFECE" filter="url(#f1tkx1ty473p30)" height="48" id="NetworkApi" style="stroke:#A80036;stroke-width:1.5;" width="102" x="159" y="87"/><ellipse cx="174" cy="103" fill="#B4A7E5" rx="11" ry="11" style="stroke:#A80036;stroke-width:1.0;"/><path d="M169.9219,98.7656 L169.9219,96.6094 L177.3125,96.6094 L177.3125,98.7656 L174.8438,98.7656 L174.8438,106.8438 L177.3125,106.8438 L177.3125,109 L169.9219,109 L169.9219,106.8438 L172.3906,106.8438 L172.3906,98.7656 L169.9219,98.7656 Z " fill="#000000"/><text fill="#000000" font-family="sans-serif" font-size="12" font-style="italic" lengthAdjust="spacing" textLength="70" x="188" y="107.1543">NetworkApi</text><line style="stroke:#A80036;stroke-width:1.5;" x1="160" x2="260" y1="119" y2="119"/><line style="stroke:#A80036;stroke-width:1.5;" x1="160" x2="260" y1="127" y2="127"/><!--MD5=[c94abd5b90ebdb3e6bbd4526b6bdb925]
class LocalApi--><rect codeLine="32" fill="#FEFECE" filter="url(#f1tkx1ty473p30)" height="48" id="LocalApi" style="stroke:#A80036;stroke-width:1.5;" width="83" x="40.5" y="87"/><ellipse cx="55.5" cy="103" fill="#B4A7E5" rx="11" ry="11" style="stroke:#A80036;stroke-width:1.0;"/><path d="M51.4219,98.7656 L51.4219,96.6094 L58.8125,96.6094 L58.8125,98.7656 L56.3438,98.7656 L56.3438,106.8438 L58.8125,106.8438 L58.8125,109 L51.4219,109 L51.4219,106.8438 L53.8906,106.8438 L53.8906,98.7656 L51.4219,98.7656 Z " fill="#000000"/><text fill="#000000" font-family="sans-serif" font-size="12" font-style="italic" lengthAdjust="spacing" textLength="51" x="69.5" y="107.1543">LocalApi</text><line style="stroke:#A80036;stroke-width:1.5;" x1="41.5" x2="122.5" y1="119" y2="119"/><line style="stroke:#A80036;stroke-width:1.5;" x1="41.5" x2="122.5" y1="127" y2="127"/><!--MD5=[84ed8d81643ce3e055382d564ede9d90]
reverse link UserDetailFragment to UserFragment--><path codeLine="37" d="M1913.3487,356.3947 C1917.6196,373.4785 1922.9354,394.7416 1926.9609,410.8436 " fill="none" id="UserDetailFragment-backto-UserFragment" style="stroke:#A80036;stroke-width:1.0;"/><polygon fill="#A80036" points="1912.0593,351.2373,1910.3616,360.9387,1913.272,356.088,1918.1227,358.9984,1912.0593,351.2373" style="stroke:#A80036;stroke-width:1.0;"/><!--MD5=[a180a250dd78f12f31f152ea9623c79b]
reverse link UserViewModel to UserFragment--><path codeLine="38" d="M1951.5681,246.1655 C1970.9348,260.4071 1991.4504,279.7512 2002,303 C2019.417,341.3829 1986.6812,384.4018 1960.598,410.5922 " fill="none" id="UserViewModel-backto-UserFragment" style="stroke:#A80036;stroke-width:1.0;"/><polygon fill="#A80036" points="1947.1985,243.0223,1952.1687,251.5251,1951.2574,245.9421,1956.8404,245.0308,1947.1985,243.0223" style="stroke:#A80036;stroke-width:1.0;"/><!--MD5=[99c5e7d7e0e1f76530f385f806519cd0]
reverse link UserViewModel to UserDetailFragment--><path codeLine="39" d="M1906,248.3947 C1906,265.4785 1906,286.7416 1906,302.8436 " fill="none" id="UserViewModel-backto-UserDetailFragment" style="stroke:#A80036;stroke-width:1.0;"/><polygon fill="#A80036" points="1906,243.2373,1902,252.2373,1906,248.2373,1910,252.2373,1906,243.2373" style="stroke:#A80036;stroke-width:1.0;"/><!--MD5=[b7f9ae7fcbb194f23e7b2d215c4651f4]
reverse link UserInteractor to UserViewModel--><path codeLine="40" d="M1782.2406,137.9938 C1808.9106,155.4506 1843.3277,177.9781 1869.0944,194.8436 " fill="none" id="UserInteractor-backto-UserViewModel" style="stroke:#A80036;stroke-width:1.0;"/><polygon fill="#A80036" points="1778.0292,135.2373,1783.3688,143.5131,1782.2127,137.9757,1787.7501,136.8196,1778.0292,135.2373" style="stroke:#A80036;stroke-width:1.0;"/><!--MD5=[41c9fe3441387897de3e131e4e2c8750]
reverse link LocalInteractor to UserInteractorImpl--><path codeLine="42" d="M1443.7402,137.9938 C1471.3801,155.4506 1507.0487,177.9781 1533.7523,194.8436 " fill="none" id="LocalInteractor-backto-UserInteractorImpl" style="stroke:#A80036;stroke-width:1.0;"/><polygon fill="#A80036" points="1439.3757,135.2373,1444.8491,143.4252,1443.6031,137.9073,1449.1211,136.6614,1439.3757,135.2373" style="stroke:#A80036;stroke-width:1.0;"/><!--MD5=[7739dd73f4fea6cfebcf95501ea8f9f7]
reverse link NetworkInteractor to UserInteractorImpl--><path codeLine="43" d="M1572,140.3947 C1572,157.4785 1572,178.7416 1572,194.8436 " fill="none" id="NetworkInteractor-backto-UserInteractorImpl" style="stroke:#A80036;stroke-width:1.0;"/><polygon fill="#A80036" points="1572,135.2373,1568,144.2373,1572,140.2373,1576,144.2373,1572,135.2373" style="stroke:#A80036;stroke-width:1.0;"/><!--MD5=[a5a9cfd2c6fd7702e4ce73aa165ab1aa]
reverse link UserInteractor to UserInteractorImpl--><path codeLine="44" d="M1686.1511,146.0514 C1661.1926,162.0012 1632.2818,180.4767 1609.8003,194.8436 " fill="none" id="UserInteractor-backto-UserInteractorImpl" style="stroke:#A80036;stroke-width:1.0;"/><polygon fill="none" points="1682.451,140.1087,1703.0731,135.2373,1689.9898,151.9055,1682.451,140.1087" style="stroke:#A80036;stroke-width:1.0;"/><!--MD5=[fd95a74d6afe5e5977a68279ea53b871]
reverse link NetworkInteractor to NetworkInteractorImpl--><path codeLine="45" d="M1504.1015,143.8836 C1470.0967,160.3523 1429.6698,179.9312 1398.6159,194.9708 " fill="none" id="NetworkInteractor-backto-NetworkInteractorImpl" style="stroke:#A80036;stroke-width:1.0;"/><polygon fill="none" points="1501.1807,137.5204,1522.232,135.1029,1507.283,150.1205,1501.1807,137.5204" style="stroke:#A80036;stroke-width:1.0;"/><!--MD5=[4f4b8817468e3ee11b8101fa9d95bd89]
reverse link LocalInteractor to LocalInteractorImpl--><path codeLine="46" d="M1318.8542,140.0877 C1270.3429,157.2655 1209.6674,178.7506 1163.8817,194.9632 " fill="none" id="LocalInteractor-backto-LocalInteractorImpl" style="stroke:#A80036;stroke-width:1.0;"/><polygon fill="none" points="1316.6143,133.455,1337.8038,133.3777,1321.2874,146.6521,1316.6143,133.455" style="stroke:#A80036;stroke-width:1.0;"/><!--MD5=[0f5f4a026bc4dc5ff34580681f2d3e8d]
reverse link NetworkRepository to NetworkInteractorImpl--><path codeLine="47" d="M1258.97,138.6427 C1278.4234,156.006 1303.2736,178.1864 1321.9359,194.8436 " fill="none" id="NetworkRepository-backto-NetworkInteractorImpl" style="stroke:#A80036;stroke-width:1.0;"/><polygon fill="#A80036" points="1255.1548,135.2373,1259.2058,144.2145,1258.8851,138.5667,1264.5328,138.246,1255.1548,135.2373" style="stroke:#A80036;stroke-width:1.0;"/><!--MD5=[abb193d3e5436df76b28df41fe0b2afb]
reverse link LocalRepository to LocalInteractorImpl--><path codeLine="48" d="M1064.5279,139.9538 C1071.3592,157.1115 1079.9159,178.6028 1086.3822,194.8436 " fill="none" id="LocalRepository-backto-LocalInteractorImpl" style="stroke:#A80036;stroke-width:1.0;"/><polygon fill="#A80036" points="1062.65,135.2373,1062.263,145.0786,1064.4996,139.8826,1069.6955,142.1192,1062.65,135.2373" style="stroke:#A80036;stroke-width:1.0;"/><!--MD5=[2d26c86dc5be794ad8f7e29e46e30be0]
reverse link NetworkRepository to NetworkRepositoryImpl--><path codeLine="50" d="M1133.4718,135.0256 C1059.3826,150.5926 1036.4684,145.9356 972,168 C951.422,175.0428 929.6947,185.334 911.5272,194.8306 " fill="none" id="NetworkRepository-backto-NetworkRepositoryImpl" style="stroke:#A80036;stroke-width:1.0;"/><polygon fill="none" points="1132.4273,128.0875,1153.467,130.6036,1135.4505,141.7572,1132.4273,128.0875" style="stroke:#A80036;stroke-width:1.0;"/><!--MD5=[61c06ff8d7b1e65f8455fa41d010be72]
reverse link LocalRepository to LocalRepositoryImpl--><path codeLine="51" d="M967.628,121.0265 C909.1243,129.5331 830.3992,144.2347 764,168 C744.613,174.9389 724.3467,185.3309 707.5362,194.9273 " fill="none" id="LocalRepository-backto-LocalRepositoryImpl" style="stroke:#A80036;stroke-width:1.0;"/><polygon fill="none" points="967.0418,114.0407,987.8153,118.2193,968.9701,127.9073,967.0418,114.0407" style="stroke:#A80036;stroke-width:1.0;"/><!--MD5=[cd788ff4c0661de828567e1eaf9ad2e7]
reverse link NetworkSource to NetworkRepositoryImpl--><path codeLine="52" d="M571.7375,121.4226 C625.089,130.6028 700.4247,145.969 764,168 C784.7762,175.1997 806.8025,185.4576 825.2872,194.8882 " fill="none" id="NetworkSource-backto-NetworkRepositoryImpl" style="stroke:#A80036;stroke-width:1.0;"/><polygon fill="#A80036" points="566.6442,120.5535,574.8432,126.0103,571.573,121.3945,576.1888,118.1243,566.6442,120.5535" style="stroke:#A80036;stroke-width:1.0;"/><!--MD5=[c29db34253e8085847200d1b14c526d7]
reverse link LocalSource to LocalRepositoryImpl--><path codeLine="53" d="M408.8513,131.2509 C413.2825,132.5809 417.7008,133.8473 422,135 C492.5513,153.9163 514.8661,141.6736 583,168 C600.811,174.882 619.194,185.266 634.3689,194.8718 " fill="none" id="LocalSource-backto-LocalRepositoryImpl" style="stroke:#A80036;stroke-width:1.0;"/><polygon fill="#A80036" points="404.0431,129.7851,411.4856,136.2357,408.8258,131.2431,413.8184,128.5833,404.0431,129.7851" style="stroke:#A80036;stroke-width:1.0;"/><!--MD5=[5e224a68069b83a8c1dfa8592d452e2a]
reverse link NetworkSource to NetworkSourceImpl--><path codeLine="55" d="M475.7139,151.9291 C466.064,166.4039 455.5254,182.2119 447.1043,194.8436 " fill="none" id="NetworkSource-backto-NetworkSourceImpl" style="stroke:#A80036;stroke-width:1.0;"/><polygon fill="none" points="469.9234,147.9954,486.8418,135.2373,481.5721,155.7612,469.9234,147.9954" style="stroke:#A80036;stroke-width:1.0;"/><!--MD5=[6c4f2a891c4bb32efc8a3bfc31d5a6f5]
reverse link LocalSource to LocalSourceImpl--><path codeLine="56" d="M301.0474,147.2115 C279.8506,162.8913 255.6086,180.8238 236.6559,194.8436 " fill="none" id="LocalSource-backto-LocalSourceImpl" style="stroke:#A80036;stroke-width:1.0;"/><polygon fill="none" points="296.9929,141.5037,317.2348,135.2373,305.3187,152.759,296.9929,141.5037" style="stroke:#A80036;stroke-width:1.0;"/><!--MD5=[abbd215a2b1c910aac65d242d963deeb]
reverse link NetworkApi to NetworkSourceImpl--><path codeLine="57" d="M264.0981,137.4371 C300.0639,155.0131 346.9218,177.912 381.8291,194.9708 " fill="none" id="NetworkApi-backto-NetworkSourceImpl" style="stroke:#A80036;stroke-width:1.0;"/><polygon fill="#A80036" points="259.3216,135.1029,265.6513,142.6484,263.8138,137.2983,269.164,135.4608,259.3216,135.1029" style="stroke:#A80036;stroke-width:1.0;"/><!--MD5=[227014a80e81fdbacb19c1765b33f681]
reverse link LocalApi to LocalSourceImpl--><path codeLine="58" d="M113.226,138.6427 C132.8401,156.006 157.8957,178.1864 176.7122,194.8436 " fill="none" id="LocalApi-backto-LocalSourceImpl" style="stroke:#A80036;stroke-width:1.0;"/><polygon fill="#A80036" points="109.3792,135.2373,113.4666,144.1979,113.123,138.5515,118.7694,138.2079,109.3792,135.2373" style="stroke:#A80036;stroke-width:1.0;"/><!--MD5=[71d98edac8bdbfac72135e6a66608af2]
@startuml
package "Random User" {
    package "Module app" {
        class UserDetailFragment
        class UserFragment
        class UserViewModel
    }

    package "Module domain" {
        interface NetworkInteractor
        class NetworkInteractorImpl
        interface LocalInteractor
        class LocalInteractorImpl
        interface UserInteractor
        class UserInteractorImpl
        interface NetworkRepository
        interface LocalRepository
    }

    package "Module data" {
        package "Repository" {
            class NetworkRepositoryImpl
            class LocalRepositoryImpl
        }

        package "Source" {
            interface NetworkSource
            class NetworkSourceImpl
            interface LocalSource
            class LocalSourceImpl

            interface NetworkApi
            interface LocalApi
        }
    }
}

UserDetailFragment <- - UserFragment
UserViewModel <- - UserFragment
UserViewModel <- - UserDetailFragment
UserInteractor <- - UserViewModel

LocalInteractor <- - UserInteractorImpl
NetworkInteractor <- - UserInteractorImpl
UserInteractor <|- - UserInteractorImpl
NetworkInteractor <|- - NetworkInteractorImpl
LocalInteractor <|- - LocalInteractorImpl
NetworkRepository <- - NetworkInteractorImpl
LocalRepository <- - LocalInteractorImpl

NetworkRepository <|- - NetworkRepositoryImpl
LocalRepository <|- - LocalRepositoryImpl
NetworkSource <- - NetworkRepositoryImpl
LocalSource <- - LocalRepositoryImpl

NetworkSource <|- - NetworkSourceImpl
LocalSource <|- - LocalSourceImpl
NetworkApi <- - NetworkSourceImpl
LocalApi <- - LocalSourceImpl
@enduml

PlantUML version 1.2021.7(Sun May 23 12:40:07 UTC 2021)
(GPL source distribution)
Java Runtime: OpenJDK Runtime Environment
JVM: OpenJDK 64-Bit Server VM
Default Encoding: UTF-8
Language: en
Country: US
--></g></svg>